<mxfile host="app.diagrams.net" modified="2022-04-27T13:28:50.550Z" agent="5.0 (Windows NT 10.0; Win64; x64) AppleWebKit/537.36 (KHTML, like Gecko) Chrome/100.0.4896.127 Safari/537.36" etag="B1h1-rdj5s37Oz6XeMPw" version="17.4.6" type="github">
  <diagram id="FWStohRlzKNdZDWDRxKP" name="Page-1">
    <mxGraphModel dx="782" dy="436" grid="0" gridSize="10" guides="1" tooltips="1" connect="1" arrows="1" fold="1" page="1" pageScale="1" pageWidth="827" pageHeight="1169" math="0" shadow="0">
      <root>
        <mxCell id="0" />
        <mxCell id="1" parent="0" />
      </root>
    </mxGraphModel>
  </diagram>
</mxfile>
